{
	"images":[{
		"uri":"data:image/jpeg;base64,"
	}],
	"asset":{
		"version":"2.0",
		"generator":"Created using the official Cinema 4D glTF Exporter 1.000x284978"
	},
	"samplers":[{
		"magFilter":9729,
		"minFilter":9729,
		"wrapS":10497,
		"wrapT":10497
	}],
	"scenes":[{
		"nodes":[0,
		1]
	}],
	"materials":[{
		"pbrMetallicRoughness":{
			"baseColorTexture":{
				"index":0
			},
			"baseColorFactor":[1.0,
			1.0,
			1.0,
			1.0],
			"metallicFactor":0.0,
			"roughnessFactor":0.5
		},
		"emissiveFactor":[0.0,
		0.0,
		0.0],
		"alphaMode":"OPAQUE",
		"doubleSided":false,
		"name":"g0"
	}],
	"cameras":[{
		"type":"perspective",
		"perspective":{
			"znear":0.009999999776482582,
			"zfar":10000000000.0,
			"aspectRatio":1.0,
			"yfov":0.19933730363845826
		}
	}],
	"nodes":[{
		"name":"cake",
		"mesh":0
	},
	{
		"name":"#asset render",
		"translation":[-2.314080238342285,
		1.2166708707809449,
		-1.8005281686782838],
		"rotation":[-0.09202173352241516,
		-0.8765279054641724,
		-0.1856503188610077,
		0.43447065353393557],
		"scale":[1.0,
		1.0,
		1.0],
		"camera":0
	}],
	"textures":[{
		"sampler":0,
		"source":0
	}],
	"meshes":[{
		"name":"cake",
		"primitives":[{
			"attributes":{
				"POSITION":1,
				"NORMAL":2,
				"TEXCOORD_0":3
			},
			"indices":0,
			"material":0
		}]
	}],
	"accessors":[{
		"bufferView":0,
		"type":"SCALAR",
		"componentType":5123,
		"count":80592,
		"byteOffset":0,
		"min":[0],
		"max":[15112]
	},
	{
		"bufferView":1,
		"type":"VEC3",
		"componentType":5126,
		"count":15113,
		"byteOffset":0,
		"min":[-0.04482308030128479,
		-0.02979370765388012,
		-0.04356502741575241],
		"max":[0.044218845665454867,
		0.02849718928337097,
		0.04352448880672455]
	},
	{
		"bufferView":1,
		"type":"VEC3",
		"componentType":5126,
		"count":15113,
		"byteOffset":12,
		"min":[-0.9994375705718994,
		-0.999750018119812,
		-0.9985312819480896],
		"max":[0.9990313053131104,
		0.9999688267707825,
		0.9999375343322754]
	},
	{
		"bufferView":1,
		"type":"VEC2",
		"componentType":5126,
		"count":15113,
		"byteOffset":24,
		"min":[0.00005652671825373545,
		0.00022238490055315197],
		"max":[0.9927159547805786,
		0.9999071359634399]
	}],
	"bufferViews":[{
		"buffer":0,
		"byteOffset":0,
		"byteLength":161184,
		"target":34963
	},
	{
		"buffer":0,
		"byteOffset":161184,
		"byteLength":483616,
		"target":34962,
		"byteStride":32
	}],
	"buffers":[{
		"uri":"data:application/octet-stream;base64,",
		"byteLength":644800
	}]
}